REM DIRINDEX 1\2\6,1\2\4\7,1\2\4\8,1\2\5\9,1\3\12,1\3\10\13,1\3\10\14,1\3\10\15,1\3\11\16,1\3\11\17
REM DIRNAME folder01,folder02,folder03,folder04,folder05,folder06,folder07,folder08,folder09,folder10,folder11,folder12,folder13,folder14,folder15,folder16,folder17
TITLE ""
FILE "207.mp3" MP3
  TRACK 01 AUDIO
    TITLE "12:cjc048_13107"
    INDEX 01 00:00:00
  TRACK 02 AUDIO
    TITLE "16:cjc048_13108"
    INDEX 01 00:01:64
  TRACK 03 AUDIO
    TITLE "17:cjc048_13109"
    INDEX 01 00:02:57
  TRACK 04 AUDIO
    TITLE "16:cjc048_13110"
    INDEX 01 00:04:70
  TRACK 05 AUDIO
    TITLE "17:cjc048_13111"
    INDEX 01 00:05:67
  TRACK 06 AUDIO
    TITLE "16:cjc048_13112"
    INDEX 01 00:08:19
  TRACK 07 AUDIO
    TITLE "17:cjc048_13113"
    INDEX 01 00:09:16
  TRACK 08 AUDIO
    TITLE "16:cjc048_13114"
    INDEX 01 00:11:48
  TRACK 09 AUDIO
    TITLE "17:cjc048_13115"
    INDEX 01 00:12:38
  TRACK 10 AUDIO
    TITLE "16:cjc048_13116"
    INDEX 01 00:14:49
  TRACK 11 AUDIO
    TITLE "17:cjc048_13117"
    INDEX 01 00:15:40
  TRACK 12 AUDIO
    TITLE "16:cjc048_13118"
    INDEX 01 00:17:53
  TRACK 13 AUDIO
    TITLE "17:cjc048_13119"
    INDEX 01 00:18:52
  TRACK 14 AUDIO
    TITLE "16:cjc048_13120"
    INDEX 01 00:21:35
  TRACK 15 AUDIO
    TITLE "17:cjc048_13121"
    INDEX 01 00:22:30
  TRACK 16 AUDIO
    TITLE "16:cjc048_13122"
    INDEX 01 00:24:53
  TRACK 17 AUDIO
    TITLE "17:cjc048_13123"
    INDEX 01 00:25:45
  TRACK 18 AUDIO
    TITLE "16:cjc048_13124"
    INDEX 01 00:26:54
  TRACK 19 AUDIO
    TITLE "17:cjc048_13125"
    INDEX 01 00:27:43
  TRACK 20 AUDIO
    TITLE "16:cjc048_13126"
    INDEX 01 00:28:55
  TRACK 21 AUDIO
    TITLE "17:cjc048_13127"
    INDEX 01 00:29:48
  TRACK 22 AUDIO
    TITLE "16:cjc048_13128"
    INDEX 01 00:31:61
  TRACK 23 AUDIO
    TITLE "17:cjc048_13129"
    INDEX 01 00:32:58
  TRACK 24 AUDIO
    TITLE "16:cjc048_13130"
    INDEX 01 00:35:19
  TRACK 25 AUDIO
    TITLE "17:cjc048_13131"
    INDEX 01 00:36:21
  TRACK 26 AUDIO
    TITLE "16:cjc048_13132"
    INDEX 01 00:37:38
  TRACK 27 AUDIO
    TITLE "17:cjc048_13133"
    INDEX 01 00:38:30
  TRACK 28 AUDIO
    TITLE "16:cjc048_13134"
    INDEX 01 00:40:56
  TRACK 29 AUDIO
    TITLE "17:cjc048_13135"
    INDEX 01 00:41:53
  TRACK 30 AUDIO
    TITLE "16:cjc048_13136"
    INDEX 01 00:43:05
  TRACK 31 AUDIO
    TITLE "17:cjc048_13137"
    INDEX 01 00:44:01
  TRACK 32 AUDIO
    TITLE "16:cjc048_13138"
    INDEX 01 00:46:43
  TRACK 33 AUDIO
    TITLE "17:cjc048_13139"
    INDEX 01 00:47:30
  TRACK 34 AUDIO
    TITLE "16:cjc048_13140"
    INDEX 01 00:48:61
  TRACK 35 AUDIO
    TITLE "17:cjc048_13141"
    INDEX 01 00:49:41
  TRACK 36 AUDIO
    TITLE "16:cjc048_13142"
    INDEX 01 00:50:66
  TRACK 37 AUDIO
    TITLE "17:cjc048_13143"
    INDEX 01 00:51:48
  TRACK 38 AUDIO
    TITLE "16:cjc048_13144"
    INDEX 01 00:53:13
  TRACK 39 AUDIO
    TITLE "17:cjc048_13145"
    INDEX 01 00:53:70
  TRACK 40 AUDIO
    TITLE "16:cjc048_13146"
    INDEX 01 00:55:18
  TRACK 41 AUDIO
    TITLE "17:cjc048_13147"
    INDEX 01 00:56:08
  TRACK 42 AUDIO
    TITLE "16:cjc048_13148"
    INDEX 01 00:57:39
  TRACK 43 AUDIO
    TITLE "17:cjc048_13149"
    INDEX 01 00:58:28
  TRACK 44 AUDIO
    TITLE "16:cjc048_13150"
    INDEX 01 00:59:73
  TRACK 45 AUDIO
    TITLE "17:cjc048_13151"
    INDEX 01 01:00:59
  TRACK 46 AUDIO
    TITLE "16:cjc048_13152"
    INDEX 01 01:03:24
  TRACK 47 AUDIO
    TITLE "17:cjc048_13153"
    INDEX 01 01:04:13
  TRACK 48 AUDIO
    TITLE "16:cjc048_13154"
    INDEX 01 01:06:63
  TRACK 49 AUDIO
    TITLE "17:cjc048_13155"
    INDEX 01 01:07:47
  TRACK 50 AUDIO
    TITLE "16:cjc048_13156"
    INDEX 01 01:09:12
  TRACK 51 AUDIO
    TITLE "17:cjc048_13157"
    INDEX 01 01:10:08
  TRACK 52 AUDIO
    TITLE "16:cjc048_13158"
    INDEX 01 01:12:50
  TRACK 53 AUDIO
    TITLE "17:cjc048_13159"
    INDEX 01 01:13:32
  TRACK 54 AUDIO
    TITLE "16:cjc048_13160"
    INDEX 01 01:15:42
  TRACK 55 AUDIO
    TITLE "17:cjc048_13161"
    INDEX 01 01:16:28
  TRACK 56 AUDIO
    TITLE "16:cjc048_13162"
    INDEX 01 01:18:49
  TRACK 57 AUDIO
    TITLE "17:cjc048_13163"
    INDEX 01 01:19:38
  TRACK 58 AUDIO
    TITLE "16:cjc048_13164"
    INDEX 01 01:21:63
  TRACK 59 AUDIO
    TITLE "17:cjc048_13165"
    INDEX 01 01:22:44
  TRACK 60 AUDIO
    TITLE "16:cjc048_13166"
    INDEX 01 01:24:71
  TRACK 61 AUDIO
    TITLE "17:cjc048_13167"
    INDEX 01 01:25:60
  TRACK 62 AUDIO
    TITLE "16:cjc048_13168"
    INDEX 01 01:27:71
  TRACK 63 AUDIO
    TITLE "17:cjc048_13169"
    INDEX 01 01:28:63
  TRACK 64 AUDIO
    TITLE "16:cjc048_13170"
    INDEX 01 01:30:09
  TRACK 65 AUDIO
    TITLE "17:cjc048_13171"
    INDEX 01 01:30:67
  TRACK 66 AUDIO
    TITLE "16:cjc048_13172"
    INDEX 01 01:33:33
  TRACK 67 AUDIO
    TITLE "17:cjc048_13173"
    INDEX 01 01:34:20
  TRACK 68 AUDIO
    TITLE "16:cjc048_13174"
    INDEX 01 01:35:57
  TRACK 69 AUDIO
    TITLE "17:cjc048_13175"
    INDEX 01 01:36:43
  TRACK 70 AUDIO
    TITLE "16:cjc048_13176"
    INDEX 01 01:39:47
  TRACK 71 AUDIO
    TITLE "17:cjc048_13177"
    INDEX 01 01:40:36
  TRACK 72 AUDIO
    TITLE "16:cjc048_13178"
    INDEX 01 01:42:55
  TRACK 73 AUDIO
    TITLE "17:cjc048_13179"
    INDEX 01 01:43:56
  TRACK 74 AUDIO
    TITLE "16:cjc048_13180"
    INDEX 01 01:45:61
  TRACK 75 AUDIO
    TITLE "17:cjc048_13181"
    INDEX 01 01:46:70
  TRACK 76 AUDIO
    TITLE "16:cjc048_13182"
    INDEX 01 01:50:23
  TRACK 77 AUDIO
    TITLE "17:cjc048_13183"
    INDEX 01 01:51:21
  TRACK 78 AUDIO
    TITLE "16:cjc048_13184"
    INDEX 01 01:54:05
  TRACK 79 AUDIO
    TITLE "17:cjc048_13185"
    INDEX 01 01:55:15
  TRACK 80 AUDIO
    TITLE "16:cjc048_13186"
    INDEX 01 01:57:17
  TRACK 81 AUDIO
    TITLE "17:cjc048_13187"
    INDEX 01 01:58:13
  TRACK 82 AUDIO
    TITLE "16:cjc048_13188"
    INDEX 01 01:59:65
  TRACK 83 AUDIO
    TITLE "17:cjc048_13189"
    INDEX 01 02:00:63
  TRACK 84 AUDIO
    TITLE "16:cjc048_13190"
    INDEX 01 02:02:28
  TRACK 85 AUDIO
    TITLE "17:cjc048_13191"
    INDEX 01 02:03:26
  TRACK 86 AUDIO
    TITLE "16:cjc048_13192"
    INDEX 01 02:04:68
  TRACK 87 AUDIO
    TITLE "17:cjc048_13193"
    INDEX 01 02:06:05
  TRACK 88 AUDIO
    TITLE "16:cjc048_13194"
    INDEX 01 02:08:43
  TRACK 89 AUDIO
    TITLE "17:cjc048_13195"
    INDEX 01 02:09:36
  TRACK 90 AUDIO
    TITLE "16:cjc048_13196"
    INDEX 01 02:12:03
  TRACK 91 AUDIO
    TITLE "17:cjc048_13197"
    INDEX 01 02:13:05
  TRACK 92 AUDIO
    TITLE "16:cjc048_13198"
    INDEX 01 02:14:51
  TRACK 93 AUDIO
    TITLE "17:cjc048_13199"
    INDEX 01 02:15:52
  TRACK 94 AUDIO
    TITLE "16:cjc048_13200"
    INDEX 01 02:18:29
  TRACK 95 AUDIO
    TITLE "17:cjc048_13201"
    INDEX 01 02:19:27
  TRACK 96 AUDIO
    TITLE "0:"
    INDEX 01 02:20:54
